Coordinates
version=1
nRows=19
nColumns=24
inDegrees=yes

Units are S.I. units (second, meters, Newtons, ...)
Angles are in degrees.

endheader
time	pelvis_tilt	pelvis_list	pelvis_rotation	pelvis_tx	pelvis_ty	pelvis_tz	hip_flexion_r	hip_adduction_r	hip_rotation_r	knee_angle_r	ankle_angle_r	subtalar_angle_r	mtp_angle_r	hip_flexion_l	hip_adduction_l	hip_rotation_l	knee_angle_l	ankle_angle_l	subtalar_angle_l	mtp_angle_l	lumbar_extension	lumbar_bending	lumbar_rotation
      1.23316667	     -0.96856490	      3.49878079	     -3.81913869	      0.25551883	      1.03693332	      0.27483392	     19.37690526	     -4.44778434	     -4.87680744	    -67.42711336	     -0.84706163	     -6.31198487	      9.00953159	      7.41591816	      7.61386138	      2.25694740	     -7.14520612	      3.11666563	    -12.43981201	     -6.12376708	     -5.49364224	     -6.81086604	      3.38771782
      1.23733333	     -1.04916375	      3.28982526	     -3.89230845	      0.26058790	      1.03757584	      0.27470124	     19.96594893	     -4.12908708	     -4.73546231	    -67.12175043	     -0.29577263	     -6.39190370	      8.98493619	      7.08679911	      7.41637212	      2.31690008	     -6.97323261	      3.20990336	    -12.52272663	     -6.13595396	     -5.49986258	     -6.55221410	      3.36130253
      1.24150000	     -1.11530572	      3.08398656	     -3.96908329	      0.26566792	      1.03821829	      0.27458421	     20.52241661	     -3.81194164	     -4.59516729	    -66.75632445	      0.21261867	     -6.49350759	      8.97131670	      6.73690752	      7.22086016	      2.35660354	     -6.78927274	      3.31767303	    -12.57882511	     -6.14392053	     -5.49918509	     -6.29763492	      3.33304604
      1.24566667	     -1.20949562	      2.84614819	     -4.00784166	      0.27071079	      1.03881658	      0.27440632	     21.08070440	     -3.46796530	     -4.49559963	    -66.32075780	      0.70466932	     -6.50418632	      8.93633657	      6.43272351	      6.99512947	      2.45287106	     -6.64019743	      3.40596686	    -12.66742305	     -6.16115524	     -5.50637041	     -5.98784780	      3.30006838
      1.24983333	     -1.27578709	      2.63540636	     -4.07227513	      0.27578778	      1.03942487	      0.27428790	     21.59716468	     -3.14514929	     -4.37330011	    -65.83248397	      1.16150503	     -6.58123670	      8.91645966	      6.08594914	      6.79474462	      2.49477114	     -6.46067323	      3.50772599	    -12.72708498	     -6.17203983	     -5.50917724	     -5.72200089	      3.26658722
      1.25400000	     -1.35054143	      2.38701609	     -4.09490340	      0.28082755	      1.04001883	      0.27410256	     22.08921933	     -2.79418377	     -4.29615295	    -65.26711636	      1.57980326	     -6.58665470	      8.87081036	      5.76328993	      6.55981051	      2.60153110	     -6.31644181	      3.58959038	    -12.81898542	     -6.19443665	     -5.54887449	     -5.40729824	      3.22256889
      1.25816667	     -1.41658016	      2.16094662	     -4.12517058	      0.28588245	      1.04057322	      0.27393942	     22.55984737	     -2.46723134	     -4.21525559	    -64.65538441	      1.97894784	     -6.62757362	      8.82001612	      5.42510314	      6.34800829	      2.69226584	     -6.15411648	      3.67477094	    -12.91109918	     -6.21959567	     -5.57480444	     -5.11824360	      3.17004654
      1.26233333	     -1.48477352	      1.95204670	     -4.16579989	      0.29095080	      1.04108429	      0.27380758	     23.01944634	     -2.15344163	     -4.12161193	    -63.99565650	      2.35551916	     -6.69503371	      8.79170887	      5.08686444	      6.15126275	      2.74535673	     -5.98254266	      3.77644749	    -12.97487766	     -6.23446102	     -5.57718067	     -4.85215285	      3.12778082
      1.26650000	     -1.49875511	      1.70472960	     -4.15788360	      0.29598733	      1.04169020	      0.27360058	     23.37763616	     -1.82144636	     -4.08680120	    -63.24134605	      2.66520716	     -6.76112559	      8.58222273	      4.68185035	      5.92843592	      2.95346905	     -5.79693416	      3.78540412	    -13.22570273	     -6.33716443	     -5.70352410	     -4.54190002	      2.97044328
      1.27066667	     -1.57661205	      1.50068980	     -4.17413856	      0.30105398	      1.04212125	      0.27344700	     23.80496468	     -1.52270278	     -4.01984380	    -62.46585446	      2.98846844	     -6.80893395	      8.55253071	      4.36803330	      5.73726873	      2.99956050	     -5.65100982	      3.89673553	    -13.25516918	     -6.35296196	     -5.68716368	     -4.27850741	      2.95625195
      1.27483333	     -1.62780806	      1.24998082	     -4.13772055	      0.30608592	      1.04260097	      0.27321862	     24.15859852	     -1.19632567	     -4.01667634	    -61.59086420	      3.21879625	     -6.87813565	      8.48098359	      4.03826126	      5.50338861	      3.13213216	     -5.53716416	      3.99655680	    -13.33028612	     -6.38839121	     -5.75556995	     -3.96266198	      2.89824429
      1.27900000	     -1.66106162	      1.03219557	     -4.11262868	      0.31112856	      1.04304788	      0.27302621	     24.48399438	     -0.90302265	     -3.99585302	    -60.67939591	      3.45025353	     -6.98526798	      8.40881620	      3.68175818	      5.30399460	      3.24495128	     -5.39939987	      4.08344216	    -13.41961638	     -6.42493575	     -5.82119609	     -3.68398402	      2.82062763
      1.28316667	     -1.71421376	      0.82426801	     -4.07546138	      0.31617268	      1.04341812	      0.27282021	     24.81055179	     -0.62499905	     -3.98698097	    -59.71353831	      3.64576704	     -7.11349675	      8.33436386	      3.35156564	      5.11470837	      3.37020834	     -5.26761716	      4.17054112	    -13.51789765	     -6.46220436	     -5.86595552	     -3.41685906	      2.73336805
      1.28733333	     -1.72926747	      0.61887286	     -4.02487530	      0.32123438	      1.04382591	      0.27261607	     25.06781980	     -0.35740170	     -3.99307550	    -58.67341955	      3.73752730	     -7.33489380	      8.18563518	      2.96064425	      4.93158320	      3.56294644	     -5.09389738	      4.23411530	    -13.67688385	     -6.53676083	     -5.94605233	     -3.16572814	      2.57032332
      1.29150000	     -1.76182689	      0.40689918	     -3.95932065	      0.32628175	      1.04416445	      0.27237957	     25.32085045	     -0.08949724	     -4.01324799	    -57.57904251	      3.85184662	     -7.54826329	      8.01448932	      2.60903892	      4.74069394	      3.73032174	     -4.96031890	      4.29843993	    -13.82200590	     -6.62480377	     -6.02309201	     -2.89250498	      2.43970161
      1.29566667	     -1.79777053	      0.22494607	     -3.88494394	      0.33131863	      1.04444071	      0.27215475	     25.56440437	      0.14192573	     -4.03683921	    -56.44209884	      3.93838280	     -7.77308569	      7.83007899	      2.27008566	      4.57982429	      3.89192548	     -4.83607323	      4.36614950	    -13.94465886	     -6.71924102	     -6.09346008	     -2.65739508	      2.31562872
      1.29983333	     -1.83917543	      0.03821556	     -3.78550766	      0.33639461	      1.04468462	      0.27188256	     25.78176606	      0.36072777	     -4.09602934	    -55.23504348	      3.96221608	     -8.02437964	      7.66650333	      1.94024885	      4.41414314	      4.05751489	     -4.72243836	      4.45851442	    -14.04613683	     -6.79989568	     -6.12699403	     -2.41718118	      2.19182891
      1.30400000	     -1.91706367	     -0.15172567	     -3.67698581	      0.34147805	      1.04482551	      0.27159642	     26.01887318	      0.57502724	     -4.17543600	    -53.98507697	      4.04295333	     -8.20909620	      7.58898068	      1.66084200	      4.24033830	      4.19495889	     -4.62813368	      4.56583698	    -14.09945069	     -6.83492242	     -6.14255807	     -2.15508162	      2.12166242
      1.30816667	     -1.91014820	     -0.32623716	     -3.55143907	      0.34654415	      1.04508762	      0.27132869	     26.12962837	      0.77280597	     -4.25036940	    -52.63714810	      3.90412198	     -8.62916692	      7.42952249	      1.28282370	      4.08764622	      4.39700675	     -4.51506327	      4.64252895	    -14.22280275	     -6.90650797	     -6.23546527	     -1.94503709	      1.92306047
